<?xml version="1.0" standalone="no"?>
<!DOCTYPE svg PUBLIC "-//W3C//DTD SVG 20010904//EN"
 "http://www.w3.org/TR/2001/REC-SVG-20010904/DTD/svg10.dtd">
<svg version="1.0" xmlns="http://www.w3.org/2000/svg"
 width="900.000000pt" height="900.000000pt" viewBox="0 0 900.000000 900.000000"
 preserveAspectRatio="xMidYMid meet">

<g transform="translate(0.000000,900.000000) scale(0.100000,-0.100000)"
fill="#000000" stroke="none">
<path d="M2944 8155 c-43 -19 -101 -86 -113 -132 -7 -23 -11 -165 -11 -364 0
-253 -3 -329 -13 -337 -8 -7 -185 -12 -532 -14 -512 -4 -521 -4 -574 -26 -230
-97 -346 -236 -386 -469 -16 -93 -22 -617 -7 -641 7 -10 647 -12 3168 -10
l3159 3 3 300 c4 351 -2 404 -60 523 -67 137 -179 236 -335 294 -57 22 -70 23
-585 26 -489 3 -528 4 -529 20 -1 9 -2 170 -3 357 -2 372 -1 369 -63 426 -45
43 -87 59 -151 59 -83 0 -143 -34 -183 -102 -24 -43 -24 -44 -29 -398 l-5
-355 -1213 -5 c-666 -3 -1217 -3 -1222 -2 -6 2 -10 125 -10 340 0 207 -4 352
-11 375 -13 48 -71 113 -117 133 -42 17 -136 17 -178 -1z m390 -1117 c114
-116 158 -258 121 -397 -44 -167 -160 -284 -323 -327 -309 -82 -612 239 -512
540 27 80 64 141 118 193 75 73 76 70 82 -172 5 -224 10 -245 62 -291 51 -45
80 -57 148 -58 98 -2 163 38 201 123 17 38 19 67 19 247 0 141 3 204 11 204 6
0 39 -28 73 -62z m2850 32 c93 -71 166 -221 166 -341 0 -90 -52 -213 -122
-290 -71 -78 -210 -139 -320 -139 -67 0 -164 32 -237 80 -52 33 -151 152 -151
181 0 8 -4 19 -9 25 -4 5 -13 30 -20 56 -36 152 29 333 153 426 56 41 56 41
56 -178 0 -218 6 -249 58 -303 41 -43 89 -62 157 -62 89 0 138 28 191 110 16
26 18 46 16 145 -2 134 7 320 16 320 4 0 24 -14 46 -30z"/>
<path d="M1305 5857 c-3 -7 -4 -996 -2 -2197 3 -1996 4 -2190 19 -2244 55
-194 200 -350 383 -410 l80 -26 2700 3 c1826 2 2713 6 2740 13 84 22 159 68
240 149 83 82 112 127 149 230 l21 60 3 2218 2 2217 -3165 0 c-2546 0 -3167
-2 -3170 -13z m1583 -986 c1 -408 -1 -568 -9 -577 -16 -19 -1108 -21 -1127 -2
-9 9 -12 148 -12 564 0 304 3 560 6 568 6 15 63 16 573 14 l566 -3 3 -564z
m1440 9 c1 -305 0 -565 -3 -577 l-5 -23 -565 0 c-527 0 -565 1 -573 18 -6 12
-9 1041 -3 1130 1 10 119 12 574 10 l572 -3 3 -555z m1441 538 c4 -13 7 -270
7 -571 -2 -467 -4 -550 -17 -558 -8 -5 -245 -8 -574 -6 l-560 2 -3 565 c-1
311 0 571 3 578 3 9 127 12 570 12 l565 0 9 -22z m1435 6 c3 -9 6 -264 6 -568
0 -416 -3 -555 -12 -564 -17 -17 -1109 -17 -1126 0 -9 9 -12 150 -12 573 0
309 3 565 7 568 3 4 259 7 569 7 503 0 562 -2 568 -16z m-4316 -2002 l2 -572
-572 2 -573 3 -3 550 c-1 303 0 560 3 573 l5 22 568 -2 567 -3 3 -573z m1437
3 l0 -570 -572 -3 -573 -2 -2 77 c-6 305 -3 1041 4 1056 8 16 43 17 576 15
l567 -3 0 -570z m1441 563 c4 -6 8 -264 8 -572 l1 -561 -577 -3 -578 -2 0 568
c0 313 3 572 7 575 3 4 260 7 569 7 416 0 565 -3 570 -12z m1439 -10 c3 -13 4
-270 3 -573 l-3 -550 -572 -3 -573 -2 0 568 c0 313 3 572 7 575 3 4 260 7 569
7 l564 0 5 -22z m-4318 -1432 c4 -8 6 -266 3 -573 l-5 -558 -564 -3 c-445 -2
-566 0 -573 10 -9 16 -11 1122 -1 1131 3 4 260 7 569 7 477 0 564 -2 571 -14z
m1441 -555 c1 -311 -2 -569 -6 -573 -9 -9 -1132 -11 -1141 -2 -9 9 -6 1118 3
1132 6 9 136 12 574 10 l567 -3 3 -564z m1439 557 c14 -17 10 -1115 -3 -1128
-7 -7 -219 -9 -575 -8 l-564 3 -3 560 c-1 308 0 566 3 573 3 9 126 12 568 12
440 0 567 -3 574 -12z m1427 6 c14 -6 16 -64 16 -563 0 -306 -4 -562 -8 -569
-7 -10 -128 -12 -573 -10 l-564 3 -3 560 c-1 308 0 566 3 573 3 9 124 12 559
12 305 0 561 -3 570 -6z"/>
</g>
</svg>
