<?xml version="1.0" standalone="no"?>
<!DOCTYPE svg PUBLIC "-//W3C//DTD SVG 20010904//EN"
 "http://www.w3.org/TR/2001/REC-SVG-20010904/DTD/svg10.dtd">
<svg version="1.0" xmlns="http://www.w3.org/2000/svg"
 width="1024.000000pt" height="1024.000000pt" viewBox="0 0 1024.000000 1024.000000"
 preserveAspectRatio="xMidYMid meet">

<g transform="translate(0.000000,1024.000000) scale(0.100000,-0.100000)"
fill="#000000" stroke="none">
<path d="M2032 8949 c-392 -46 -697 -355 -741 -753 -7 -60 -11 -412 -11 -946
l0 -850 3840 0 3840 0 0 850 c0 534 -4 886 -11 946 -26 239 -143 445 -334 591
-101 77 -265 145 -381 158 -32 3 -74 8 -91 11 l-33 5 0 -418 c-1 -230 -5 -448
-9 -485 -31 -240 -254 -408 -488 -369 -187 32 -329 181 -354 369 -4 37 -8 255
-9 485 l0 417 -2130 0 -2130 0 0 -417 c-1 -230 -5 -448 -9 -485 -31 -240 -254
-408 -488 -369 -187 32 -329 181 -354 369 -4 37 -8 255 -9 485 0 327 -3 417
-12 416 -7 -1 -46 -5 -86 -10z"/>
</g>
</svg>
