<?xml version="1.0" standalone="no"?>
<!DOCTYPE svg PUBLIC "-//W3C//DTD SVG 20010904//EN"
 "http://www.w3.org/TR/2001/REC-SVG-20010904/DTD/svg10.dtd">
<svg version="1.0" xmlns="http://www.w3.org/2000/svg"
 width="980.000000pt" height="980.000000pt" viewBox="0 0 980.000000 980.000000"
 preserveAspectRatio="xMidYMid meet">

<g transform="translate(0.000000,980.000000) scale(0.100000,-0.100000)"
fill="#000000" stroke="none">
<path d="M4560 9789 c-1034 -75 -1998 -463 -2800 -1128 -150 -123 -501 -475
-622 -621 -534 -647 -880 -1372 -1042 -2180 -259 -1291 18 -2648 761 -3727
277 -403 628 -778 1018 -1087 440 -348 980 -636 1525 -811 1440 -463 3025
-232 4267 622 407 279 799 649 1099 1034 540 695 885 1521 993 2384 94 743 24
1456 -211 2173 -49 150 -63 182 -77 178 -9 -3 -140 -39 -291 -82 -151 -42
-278 -79 -281 -83 -4 -3 11 -53 33 -111 109 -293 195 -665 235 -1023 23 -209
23 -645 -1 -857 -137 -1258 -772 -2344 -1795 -3072 -492 -351 -1088 -601
-1694 -713 -1048 -192 -2138 13 -3037 573 -939 585 -1615 1503 -1890 2569
-208 803 -177 1659 88 2443 496 1467 1762 2568 3272 2844 785 144 1588 72
2313 -207 49 -19 69 -23 72 -14 11 33 165 571 165 578 0 12 -385 136 -555 178
-253 63 -455 99 -720 127 -170 18 -653 26 -825 13z"/>
<path d="M9270 8778 c-28 -7 -487 -461 -2297 -2270 l-2262 -2261 -78 74 c-44
41 -425 405 -847 809 -422 404 -777 740 -789 746 -39 21 -85 25 -129 14 -36
-10 -69 -38 -210 -178 -92 -91 -174 -180 -183 -198 -22 -46 -19 -104 8 -152
18 -33 1347 -1318 2037 -1969 134 -126 165 -142 244 -122 43 11 204 170 2513
2480 1358 1358 2476 2484 2486 2502 21 38 22 118 3 155 -8 15 -90 102 -183
194 -193 191 -216 204 -313 176z"/>
</g>
</svg>
