<?xml version="1.0" standalone="no"?>
<!DOCTYPE svg PUBLIC "-//W3C//DTD SVG 20010904//EN"
 "http://www.w3.org/TR/2001/REC-SVG-20010904/DTD/svg10.dtd">
<svg version="1.0" xmlns="http://www.w3.org/2000/svg"
 width="900.000000pt" height="520.000000pt" viewBox="0 0 900.000000 520.000000"
 preserveAspectRatio="xMidYMid meet">

<g transform="translate(0.000000,520.000000) scale(0.100000,-0.100000)"
fill="#000000" stroke="none">
<path d="M2663 5180 c-30 -15 -48 -34 -62 -64 l-21 -42 0 -2497 0 -2497 160 0
160 0 0 959 c0 905 1 960 18 965 9 2 49 14 87 25 175 50 428 72 605 52 220
-25 407 -69 728 -171 606 -192 873 -240 1252 -227 408 15 707 78 965 203 61
29 127 67 148 84 l37 31 0 1440 0 1439 -43 -33 c-58 -44 -190 -109 -307 -150
-379 -136 -943 -173 -1395 -93 -149 27 -364 80 -614 152 -494 143 -712 184
-986 184 -132 0 -301 -17 -405 -40 -25 -6 -55 -12 -67 -15 -21 -5 -21 -2 -25
104 -2 92 -6 114 -24 137 -53 71 -135 92 -211 54z"/>
</g>
</svg>
