<?xml version="1.0" standalone="no"?>
<!DOCTYPE svg PUBLIC "-//W3C//DTD SVG 20010904//EN"
 "http://www.w3.org/TR/2001/REC-SVG-20010904/DTD/svg10.dtd">
<svg version="1.0" xmlns="http://www.w3.org/2000/svg"
 width="512.000000pt" height="512.000000pt" viewBox="0 0 512.000000 512.000000"
 preserveAspectRatio="xMidYMid meet">

<g transform="translate(0.000000,512.000000) scale(0.100000,-0.100000)"
fill="#000000" stroke="none">
<path d="M1072 4742 c-37 -12 -93 -62 -108 -98 -11 -26 -14 -100 -14 -337 0
-299 0 -305 23 -348 63 -119 237 -117 296 4 20 41 21 59 21 348 0 339 -1 346
-70 401 -37 29 -105 43 -148 30z"/>
<path d="M3618 4740 c-44 -13 -84 -47 -104 -87 -17 -35 -19 -65 -19 -348 0
-276 2 -313 17 -342 40 -73 133 -110 211 -84 45 15 93 68 106 118 15 52 14
576 0 628 -14 50 -64 100 -114 114 -45 12 -59 13 -97 1z"/>
<path d="M535 4450 c-254 -34 -467 -233 -520 -485 -22 -105 -22 -2695 0 -2800
37 -175 162 -341 315 -418 154 -77 7 -71 1718 -74 l1534 -4 49 -49 c216 -216
567 -301 866 -209 155 48 321 158 420 282 70 85 135 211 169 322 24 79 27 108
28 230 0 114 -3 155 -21 220 -44 161 -121 295 -234 408 l-68 68 -3 997 c-3
919 -5 1002 -21 1057 -65 219 -231 384 -442 440 -69 18 -249 31 -289 21 l-27
-7 3 -142 3 -142 115 -6 c95 -5 126 -10 170 -31 70 -32 126 -88 159 -158 24
-51 26 -67 29 -222 l4 -168 -2096 0 -2096 0 0 160 c0 133 3 168 19 210 30 78
81 134 158 172 61 30 77 33 178 37 67 2 113 8 117 15 13 19 9 261 -4 274 -13
13 -136 14 -233 2z m3955 -1765 c0 -322 -2 -585 -5 -585 -3 0 -47 7 -97 16
-458 80 -887 -205 -1004 -666 -26 -103 -25 -305 3 -408 l20 -72 -1431 2 -1431
3 -67 33 c-78 38 -129 94 -159 172 -18 48 -19 88 -19 1070 l0 1020 2095 0
2095 0 0 -585z m238 -961 c52 -36 67 -115 33 -171 -56 -90 -507 -732 -532
-755 -34 -33 -67 -42 -112 -34 -41 8 -307 221 -325 260 -18 39 -15 86 8 123
24 40 53 55 101 55 47 -1 66 -11 148 -79 64 -52 67 -53 82 -35 8 11 111 157
227 324 117 168 222 310 235 316 33 16 109 14 135 -4z"/>
<path d="M709 2923 c-15 -2 -39 -18 -55 -34 l-29 -30 -3 -222 c-4 -242 2 -283
45 -316 24 -20 38 -21 272 -21 260 1 260 1 294 50 15 21 17 54 17 257 0 248
-4 269 -49 300 -23 16 -54 18 -246 19 -121 1 -232 0 -246 -3z"/>
<path d="M1671 2917 c-19 -6 -44 -25 -55 -40 -20 -26 -21 -44 -24 -245 -4
-236 2 -278 45 -311 24 -20 39 -21 272 -21 266 0 272 2 300 57 15 30 15 473
-1 507 -25 57 -43 61 -283 63 -154 2 -230 -1 -254 -10z"/>
<path d="M2641 2917 c-19 -7 -44 -25 -55 -40 -19 -26 -21 -44 -24 -230 -4
-244 0 -281 38 -319 l28 -28 250 0 250 0 31 31 31 31 0 245 c0 338 14 323
-315 322 -128 0 -212 -4 -234 -12z"/>
<path d="M3611 2917 c-19 -7 -44 -25 -55 -40 -19 -26 -21 -44 -24 -230 -4
-247 0 -282 40 -319 l30 -28 248 0 248 0 31 31 31 31 0 247 c0 235 -1 250 -20
274 -12 15 -38 31 -58 37 -52 14 -428 12 -471 -3z"/>
<path d="M685 1935 c-57 -28 -60 -40 -63 -280 -4 -250 2 -285 51 -315 29 -18
52 -20 271 -20 l238 0 34 34 34 34 0 236 c0 265 -4 286 -65 312 -50 21 -457
20 -500 -1z"/>
<path d="M1655 1935 c-57 -28 -60 -40 -63 -276 -4 -250 3 -290 51 -319 29 -18
52 -20 271 -20 l238 0 34 34 34 34 0 241 c0 269 -3 281 -67 307 -49 21 -456
19 -498 -1z"/>
<path d="M2644 1943 c-12 -2 -34 -18 -50 -34 l-29 -30 0 -238 c0 -190 3 -243
15 -265 27 -52 48 -56 306 -56 l236 0 34 34 34 34 0 244 c0 209 -2 247 -16
267 -32 45 -67 51 -296 50 -117 -1 -223 -4 -234 -6z"/>
<path d="M1471 4446 c-8 -9 -11 -57 -9 -147 l3 -134 920 -3 c856 -2 921 -1
933 15 19 27 17 247 -4 267 -14 14 -111 16 -923 16 -763 0 -910 -2 -920 -14z"/>
</g>
</svg>
