<?xml version="1.0" standalone="no"?>
<!DOCTYPE svg PUBLIC "-//W3C//DTD SVG 20010904//EN"
 "http://www.w3.org/TR/2001/REC-SVG-20010904/DTD/svg10.dtd">
<svg version="1.0" xmlns="http://www.w3.org/2000/svg"
 width="860.000000pt" height="990.000000pt" viewBox="0 0 860.000000 990.000000"
 preserveAspectRatio="xMidYMid meet">

<g transform="translate(0.000000,990.000000) scale(0.100000,-0.100000)"
fill="#000000" stroke="none">
<path d="M4725 9474 c-149 -30 -414 -87 -785 -169 -762 -170 -728 -160 -773
-215 -41 -49 -38 -31 -132 -715 -20 -143 -38 -268 -41 -277 -6 -21 -92 -42
-1049 -254 -1423 -315 -1491 -330 -1543 -355 -118 -57 -122 -237 -8 -304 71
-42 98 -39 591 70 314 69 299 69 244 1 -31 -37 -32 -39 -25 -114 8 -96 51
-633 111 -1372 25 -311 66 -812 91 -1115 24 -302 64 -800 89 -1105 25 -305 63
-769 85 -1030 22 -261 47 -560 55 -665 44 -542 97 -1092 108 -1115 9 -18 25
-28 62 -38 106 -26 628 -32 3131 -32 l2562 0 34 38 c18 20 39 51 46 67 10 27
57 550 127 1430 14 171 41 497 60 725 36 439 111 1357 120 1475 3 39 23 293
45 565 102 1279 160 2078 160 2202 0 57 -4 71 -26 97 -63 75 -63 75 -339 86
l-249 10 -176 313 c-224 397 -252 440 -310 470 -56 28 -105 28 -150 1 -33 -20
-173 -127 -352 -268 -42 -34 -85 -61 -95 -61 -10 0 -83 35 -163 76 -490 256
-507 264 -556 264 -77 0 -152 -44 -994 -581 l-335 -213 -85 -6 c-47 -4 -373
-6 -725 -4 -352 1 -950 3 -1330 4 -422 1 -682 5 -670 10 11 5 115 30 230 55
116 25 280 61 365 80 85 19 353 78 595 130 473 103 779 170 1105 241 113 25
288 63 390 85 102 22 295 65 430 94 135 30 338 75 452 100 115 25 300 65 413
90 113 25 297 65 410 90 113 25 297 65 410 90 804 177 1362 299 1620 357 243
54 270 65 316 129 65 92 7 247 -104 273 -42 10 -517 -89 -2413 -504 -100 -22
-193 -40 -206 -40 -21 0 -46 34 -179 248 -189 304 -316 496 -359 545 -65 75
-94 79 -285 41z m169 -526 c107 -164 236 -377 236 -389 0 -9 -25 -16 -185 -54
-287 -68 -1513 -325 -1550 -325 -4 0 -4 30 0 68 8 86 64 509 71 544 5 25 12
28 157 62 235 55 447 102 747 166 335 71 314 67 378 69 l53 1 93 -142z m849
-1219 c23 -12 146 -77 272 -145 283 -152 387 -198 423 -189 47 11 108 53 269
182 86 69 158 122 160 117 2 -5 44 -79 92 -164 49 -85 87 -158 84 -162 -6 -10
-1993 -10 -1993 0 0 8 475 312 554 354 62 33 85 34 139 7z m1961 -760 c4 -4 2
-69 -4 -145 -23 -302 -93 -1185 -130 -1654 -22 -272 -49 -614 -60 -760 -11
-146 -34 -425 -50 -620 -16 -195 -52 -645 -81 -1000 -28 -355 -72 -897 -98
-1205 l-46 -560 -2577 -3 -2577 -2 -5 32 c-5 31 -53 591 -76 893 -6 77 -22
271 -35 430 -14 160 -34 405 -45 545 -11 140 -38 476 -60 745 -78 955 -120
1483 -140 1740 -11 143 -29 366 -40 495 -26 315 -80 1014 -80 1045 l0 24 138
4 c253 6 5960 2 5966 -4z"/>
<path d="M2883 6151 c-59 -27 -93 -81 -93 -150 0 -95 87 -1282 175 -2391 19
-239 44 -552 55 -695 31 -401 80 -948 86 -968 10 -31 65 -87 107 -109 102 -52
229 26 243 148 5 44 -57 887 -121 1654 -13 162 -32 383 -40 490 -47 593 -151
1791 -165 1889 -10 72 -32 103 -95 132 -51 24 -99 24 -152 0z"/>
<path d="M4596 6160 c-35 -11 -72 -45 -94 -85 -26 -49 -30 -402 -24 -2358 l5
-1798 50 -39 c73 -59 115 -69 185 -44 70 24 89 51 103 139 8 49 13 681 16
2079 l4 2009 -33 35 c-59 62 -136 84 -212 62z"/>
<path d="M6285 6151 c-50 -22 -91 -69 -105 -119 -5 -20 -23 -208 -40 -417 -16
-209 -45 -573 -65 -810 -82 -1014 -199 -2494 -214 -2704 -8 -108 -7 -139 4
-160 28 -54 118 -121 163 -121 39 0 110 32 141 64 38 39 33 4 90 656 136 1543
275 3323 269 3450 -4 88 -27 128 -93 160 -51 25 -98 25 -150 1z"/>
</g>
</svg>
